<svg xmlns="http://www.w3.org/2000/svg" version="1.1" xmlns:xlink="http://www.w3.org/1999/xlink" width="512" height="512" x="0" y="0" viewBox="0 0 66 66" style="enable-background:new 0 0 512 512" xml:space="preserve" class=""><g><path fill="#5d5b68" d="M24.86 51.13h16.27l3.78 7.52H21.09z" opacity="1" data-original="#5d5b68" class=""></path><path fill="#848792" d="M16.4 58.65h33.19v4H16.4z" opacity="1" data-original="#848792" class=""></path><path fill="#e6e9ee" d="M60.52 3.35H5.48C3.56 3.35 2 4.91 2 6.83v36.23h62V6.83c0-1.92-1.56-3.48-3.48-3.48z" opacity="1" data-original="#e6e9ee" class=""></path><path fill="#c8ced6" d="M60.95 3.39c.02.15.05.29.05.44 0 20.01-16.22 36.23-36.23 36.23H2v3h62V6.83c0-1.77-1.33-3.22-3.05-3.44z" opacity="1" data-original="#c8ced6" class=""></path><path fill="#848792" d="M2 43.06v4.6c0 1.92 1.56 3.48 3.48 3.48h55.04c1.92 0 3.48-1.56 3.48-3.48v-4.6z" opacity="1" data-original="#848792" class=""></path><path fill="#2c92bf" d="M46.11 15.05h4.81v23.01h-4.81zM34.829 38.057h-4.81v-13h4.81z" opacity="1" data-original="#2c92bf" class=""></path><path fill="#4ec4a5" d="M54.15 25.06h4.81v13h-4.81z" opacity="1" data-original="#4ec4a5"></path><path fill="#30aa87" d="M58.958 38.057h-2v-13h2z" opacity="1" data-original="#30aa87"></path><path fill="#4ec4a5" d="M42.874 38.062h-4.81v-6.99h4.81z" opacity="1" data-original="#4ec4a5"></path><path fill="#e1533b" d="M17.4 8.36c-.08 0-.15-.01-.23-.01C11.56 8.35 7 12.91 7 18.53c0 2.87 1.19 5.45 3.1 7.3l7.3-7.3z" opacity="1" data-original="#e1533b"></path><path fill="#f8ce01" d="M10.1 25.83c1.83 1.78 4.32 2.87 7.08 2.87 5.62 0 10.18-4.56 10.18-10.18H17.4z" opacity="1" data-original="#f8ce01"></path><path fill="#5f6fe7" d="M17.4 8.36v10.17h9.95c0-5.55-4.43-10.05-9.95-10.17z" opacity="1" data-original="#5f6fe7"></path><path fill="#30aa87" d="M42.869 38.062h-2v-6.99h2z" opacity="1" data-original="#30aa87"></path><path fill="#1f81a3" d="M50.914 38.059h-2v-23.01h2zM34.825 38.057h-2v-13h2z" opacity="1" data-original="#1f81a3" class=""></path><path d="M44.91 59.4H21.09c-.26 0-.5-.13-.64-.36s-.15-.5-.03-.73l3.78-7.51a.76.76 0 0 1 .67-.41h16.27c.28 0 .54.16.67.41l3.78 7.51c.12.23.11.51-.03.73s-.39.36-.65.36zM22.3 57.9h21.39l-3.02-6.01H25.33z" fill="#000000" opacity="1" data-original="#000000" class=""></path><path d="M49.6 63.4H16.4c-.41 0-.75-.34-.75-.75v-4c0-.41.34-.75.75-.75h33.2c.41 0 .75.34.75.75v4c0 .41-.34.75-.75.75zm-32.45-1.5h31.69v-2.5H17.15zM64 43.81H2c-.41 0-.75-.34-.75-.75V6.83c0-2.33 1.9-4.23 4.23-4.23h55.04c2.33 0 4.23 1.9 4.23 4.23v36.23c0 .41-.34.75-.75.75zm-61.25-1.5h60.5V6.83c0-1.5-1.22-2.73-2.73-2.73H5.48c-1.5 0-2.73 1.22-2.73 2.73z" fill="#000000" opacity="1" data-original="#000000" class=""></path><path d="M60.52 51.88H5.48c-2.33 0-4.23-1.9-4.23-4.23v-4.6c0-.41.34-.75.75-.75h62c.41 0 .75.34.75.75v4.6c0 2.34-1.9 4.23-4.23 4.23zM2.75 43.81v3.85c0 1.5 1.22 2.73 2.73 2.73h55.04c1.5 0 2.73-1.22 2.73-2.73v-3.85z" fill="#000000" opacity="1" data-original="#000000" class=""></path><circle cx="33" cy="47.1" r="1" fill="#000000" opacity="1" data-original="#000000" class=""></circle><path d="M50.91 38.81H46.1c-.41 0-.75-.34-.75-.75V15.05c0-.41.34-.75.75-.75h4.81c.41 0 .75.34.75.75v23.01c0 .41-.33.75-.75.75zm-4.05-1.5h3.31V15.8h-3.31zM34.83 38.81h-4.81c-.41 0-.75-.34-.75-.75v-13c0-.41.34-.75.75-.75h4.81c.41 0 .75.34.75.75v13c0 .41-.34.75-.75.75zm-4.06-1.5h3.31v-11.5h-3.31zM58.96 38.81h-4.81c-.41 0-.75-.34-.75-.75v-13c0-.41.34-.75.75-.75h4.81c.41 0 .75.34.75.75v13c0 .41-.34.75-.75.75zm-4.06-1.5h3.31v-11.5H54.9zM42.87 38.81h-4.81c-.41 0-.75-.34-.75-.75v-6.99c0-.41.34-.75.75-.75h4.81c.41 0 .75.34.75.75v6.99c0 .41-.34.75-.75.75zm-4.06-1.5h3.31v-5.49h-3.31zM24.09 35.31H7c-.41 0-.75-.34-.75-.75s.34-.75.75-.75h17.09c.41 0 .75.34.75.75s-.34.75-.75.75zM17.4 38.81H7c-.41 0-.75-.34-.75-.75s.34-.75.75-.75h10.4a.749.749 0 1 1 0 1.5zM10.1 26.58c-.19 0-.38-.07-.52-.21a10.813 10.813 0 0 1-3.33-7.84c0-6.03 4.9-10.93 10.93-10.93.06 0 .11 0 .17.01.41.01.81.34.81.75v10.17c0 .2-.08.39-.22.53l-7.3 7.3c-.16.15-.35.22-.54.22zm6.55-17.46c-4.99.3-8.9 4.4-8.9 9.41 0 2.32.83 4.51 2.36 6.23l6.54-6.54z" fill="#000000" opacity="1" data-original="#000000" class=""></path><path d="M17.18 29.45c-2.85 0-5.55-1.09-7.6-3.08-.14-.14-.23-.33-.23-.53s.08-.39.22-.54l7.3-7.3a.75.75 0 0 1 .53-.22h9.95c.41 0 .75.34.75.75 0 6.02-4.9 10.92-10.92 10.92zm-5.99-3.65a9.376 9.376 0 0 0 5.99 2.15c4.95 0 9.01-3.83 9.4-8.68h-8.86z" fill="#000000" opacity="1" data-original="#000000" class=""></path><path d="M27.35 19.28H17.4c-.41 0-.75-.34-.75-.75V8.36c0-.2.08-.4.23-.54.14-.14.35-.22.54-.21 5.89.13 10.68 5.03 10.68 10.92 0 .41-.33.75-.75.75zm-9.2-1.5h8.42c-.36-4.48-3.94-8.15-8.42-8.62z" fill="#000000" opacity="1" data-original="#000000" class=""></path></g></svg>