<svg xmlns="http://www.w3.org/2000/svg" version="1.1" xmlns:xlink="http://www.w3.org/1999/xlink" width="512" height="512" x="0" y="0" viewBox="0 0 512 512" style="enable-background:new 0 0 512 512" xml:space="preserve" class=""><g><path fill="#f98800" d="M216 208v120c0-1.04-.08-2-.24-2.96-1.36-6.8-6.96-12.08-13.92-12.96-.56-.08-1.2-.08-1.84-.08h-16v56l32 32v48H56v-40l32-32v-40H72c-8.8 0-16 7.2-16 16V208h40v16h80v-16z" opacity="1" data-original="#f98800"></path><path fill="#f05a29" d="M216 208 56 448h160z" opacity="1" data-original="#f05a29" class=""></path><path fill="#acdd12" d="M504 464v40h-48l16-16-8-24h16l8-8zM456 504s-48-.08-48 0v-40l16-8 8 8h16l-8 24z" opacity="1" data-original="#acdd12"></path><path fill="#387f29" d="m472 488-16 16-16-16 8-24h16z" opacity="1" data-original="#387f29"></path><path fill="#aedef8" d="M472 112h-32l-32 8v40h96v-40z" opacity="1" data-original="#aedef8"></path><path fill="#fac8b2" d="m472 48-24 24-16-8h-16v8c0 8.837 7.163 16 16 16v8l8 16h32l8-16v-8c8.837 0 16-7.163 16-16v-8h-24z" opacity="1" data-original="#fac8b2"></path><path fill="#00587e" d="m456 112-16 32 16 16 16-16z" opacity="1" data-original="#00587e"></path><path fill="#58492f" d="M432 64h-24V24l32-16 32 8 16-8 16 16v40h-32V48l-24 24z" opacity="1" data-original="#58492f"></path><path fill="#fcd4ef" d="M456 344s48-.08 48 0v-40l-24-8-8 8h-8l8 24z" opacity="1" data-original="#fcd4ef"></path><path fill="#f249b4" d="m440 328 16 16 16-16-8-24h-16z" opacity="1" data-original="#f249b4"></path><path fill="#fcd4ef" d="M408 304v40h48l-16-16 8-24h-8l-8-8z" opacity="1" data-original="#fcd4ef"></path><path fill="#fac8b2" d="M480 272v24l-8 8h-32l-8-8v-24h8c4.4 0 8.4-1.76 11.28-4.72 2.96-2.88 4.72-6.88 4.72-11.28 0 8.8 7.2 16 16 16z" opacity="1" data-original="#fac8b2"></path><path fill="#b71e71" d="M496 264c0 11.04-4.48 21.04-11.68 28.32-1.36 1.36-2.8 2.56-4.32 3.68v-24h-8c-8.8 0-16-7.2-16-16 0 4.4-1.76 8.4-4.72 11.28-2.88 2.96-6.88 4.72-11.28 4.72h-8v24c-1.52-1.12-2.96-2.32-4.32-3.68-7.2-7.28-11.68-17.28-11.68-28.32 0-14.8 8-27.68 20-34.64 5.84-3.44 12.72-5.36 20-5.36s14.16 1.92 20 5.36c3.04 1.76 5.84 3.84 8.32 6.32 7.2 7.28 11.68 17.28 11.68 28.32z" opacity="1" data-original="#b71e71"></path><path fill="#931d5b" d="M480 216c0 4.96-1.52 9.52-4 13.36-5.84-3.44-12.72-5.36-20-5.36s-14.16 1.92-20 5.36c-2.48-3.84-4-8.4-4-13.36 0-13.28 10.72-24 24-24s24 10.72 24 24z" opacity="1" data-original="#931d5b"></path><path fill="#f05a29" d="M488 392v24l-64-16v-8c0-8.8 7.2-16 16-16h32c8.8 0 16 7.2 16 16z" opacity="1" data-original="#f05a29" class=""></path><path fill="#fac8b2" d="M504 428c0 6.64-5.36 12-12 12h-4v16l-8 8h-48l-8-8v-16h-4c-6.64 0-12-5.36-12-12s5.36-12 12-12h4v-16l64 16h4c6.64 0 12 5.36 12 12z" opacity="1" data-original="#fac8b2"></path><path fill="#ffec00" d="M176 208v16H96v-16c0-8.8 7.2-16 16-16h8v-8c0-8.8 7.2-16 16-16 4.4 0 8.4 1.76 11.28 4.72 2.96 2.88 4.72 6.88 4.72 11.28v8h8c8.8 0 16 7.2 16 16z" opacity="1" data-original="#ffec00" class=""></path><path fill="#ffffff" d="M88 256h32v32H88zM88 320h32v32H88zM88 384h32v32H88z" opacity="1" data-original="#ffffff"></path><path fill="#fac8b2" d="M88 336v40l-32 32H8v-80l24-24h24v48c0-8.8 7.2-16 16-16zM264 328v42.16l-48-44.8V304h24z" opacity="1" data-original="#fac8b2"></path><path fill="#fac8b2" d="M262.88 400H216l-32-32v-56h16c.64 0 1.28 0 1.84.08 6.96.88 12.56 6.16 13.92 12.96.16.96.24 1.92.24 2.96v28.24z" opacity="1" data-original="#fac8b2"></path><path fill="#00a8e7" d="M201.84 312.08c-.56-.08-1.2-.08-1.84-.08h-16v14.4L160 304v-16h16zM296 400l-16 16-17.12-16L216 356.24v-30.88l48 44.8z" opacity="1" data-original="#00a8e7"></path><path fill="#00587e" d="M216 400h48v104h-48zM8 408h48v96H8z" opacity="1" data-original="#00587e"></path><path fill="#f05a29" d="M184 264h-32a8 8 0 0 1 0-16h32a8 8 0 0 1 0 16z" opacity="1" data-original="#f05a29" class=""></path><path fill="#f98800" d="M160 352h-8a8 8 0 0 1 0-16h8a8 8 0 0 1 0 16zM184 424h-32a8 8 0 0 1 0-16h32a8 8 0 0 1 0 16z" opacity="1" data-original="#f98800"></path><circle cx="136" cy="72" r="64" fill="#ffec00" opacity="1" data-original="#ffec00" class=""></circle><path fill="#fcc200" d="M200 72c0 35.35-28.65 64-64 64-23.84 0-44.63-13.03-55.64-32.36 9.33 5.32 20.13 8.36 31.64 8.36 35.35 0 64-28.65 64-64 0-11.51-3.04-22.31-8.36-31.64C186.97 27.37 200 48.16 200 72z" opacity="1" data-original="#fcc200" class=""></path><g fill="#e22526"><path d="M152 80h-16a8 8 0 0 1-8-8V40a8 8 0 0 1 16 0v24h8a8 8 0 0 1 0 16zM365.657 226.343a8.001 8.001 0 0 0-11.314 11.314L364.686 248H256a8 8 0 0 0 0 16h108.686l-10.343 10.343a8.001 8.001 0 0 0 11.314 11.314l24-24a8.001 8.001 0 0 0 0-11.314zM256 224h40c22.056 0 40-17.944 40-40v-56c0-13.233 10.767-24 24-24h4.686l-10.343 10.343a8.001 8.001 0 0 0 11.314 11.314l24-24a8.001 8.001 0 0 0 0-11.314l-24-24a8.001 8.001 0 0 0-11.314 11.314L364.686 88H360c-22.056 0-40 17.944-40 40v56c0 13.233-10.767 24-24 24h-40a8 8 0 0 0 0 16zM365.657 386.343a8.001 8.001 0 0 0-11.314 11.314L364.686 408H360c-13.233 0-24-10.767-24-24v-56c0-22.056-17.944-40-40-40h-40a8 8 0 0 0 0 16h40c13.233 0 24 10.767 24 24v56c0 22.056 17.944 40 40 40h4.686l-10.343 10.343a8.001 8.001 0 0 0 11.314 11.314l24-24a8.001 8.001 0 0 0 0-11.314z" fill="#e22526" opacity="1" data-original="#e22526"></path></g><path d="M488 96v-1.371c9.313-3.302 16-12.2 16-22.629a8 8 0 0 0 8-8V24a8.002 8.002 0 0 0-2.343-5.657l-16-16a8.002 8.002 0 0 0-9.235-1.498L471.069 7.52 441.94.24a7.988 7.988 0 0 0-5.518.606l-32 16A8 8 0 0 0 400 24v40a8 8 0 0 0 8 8c0 10.43 6.688 19.327 16 22.629V96a8 8 0 0 0 .845 3.578l3.54 7.08-22.325 5.581A7.999 7.999 0 0 0 400 120v40a8 8 0 0 0 8 8h96a8 8 0 0 0 8-8v-40a7.999 7.999 0 0 0-6.06-7.76l-22.325-5.582 3.54-7.08A8 8 0 0 0 488 96zm-72-67.056 24.93-12.465 29.13 7.282a8 8 0 0 0 5.518-.606l10.842-5.42 9.58 9.578V56h-16v-8a8 8 0 0 0-13.657-5.657L446.42 62.266l-10.842-5.421A8 8 0 0 0 432 56h-16zm40 119.743-6.266-6.267L456 129.889l6.266 12.53zm-40-22.44L440.984 120h2.072l-10.211 20.422a8.002 8.002 0 0 0 1.498 9.235l2.343 2.343H416zM496 152h-20.686l2.343-2.343a8.002 8.002 0 0 0 1.498-9.235L468.945 120h2.07L496 126.246zm-16-72a8 8 0 0 0-8 8v6.111L467.056 104h-22.112L440 94.111V88a8 8 0 0 0-8-8c-4.411 0-8-3.589-8-8h6.111l14.31 7.155a7.997 7.997 0 0 0 9.235-1.498l10.85-10.85A8.002 8.002 0 0 0 472 72h16c0 4.411-3.589 8-8 8zM506.53 296.41l-11.841-3.947C500.733 284.231 504 274.35 504 264c0-12.766-4.969-24.821-14.022-33.978-1.186-1.184-2.474-2.302-3.818-3.374 1.201-3.426 1.84-7.015 1.84-10.648 0-17.645-14.355-32-32-32s-32 14.355-32 32c0 3.65.644 7.255 1.856 10.695C414.705 235.742 408 249.452 408 264c0 10.341 3.263 20.215 9.315 28.462l-11.845 3.948A8 8 0 0 0 400 304v40a8 8 0 0 0 8 8h96a8 8 0 0 0 8-8v-40a8 8 0 0 0-5.47-7.59zM472 292.686 468.687 296h-25.374L440 292.686V280c6.006 0 11.627-2.17 15.981-6.143A23.904 23.904 0 0 0 472 280zm-9.153 33.153L456 332.687l-6.847-6.848L453.767 312h4.466zM456 200c8.822 0 16 7.178 16 16 0 .887-.083 1.77-.23 2.646A48.103 48.103 0 0 0 456 216c-5.435 0-10.77.909-15.77 2.644A15.947 15.947 0 0 1 440 216c0-8.822 7.178-16 16-16zm-15.94 36.253C444.783 233.47 450.296 232 456 232s11.217 1.47 15.99 4.282c2.588 1.5 4.772 3.153 6.642 5.023 6.04 6.11 9.368 14.169 9.368 22.695 0 1.813-.15 3.605-.445 5.362A8.003 8.003 0 0 0 480 264h-8c-4.411 0-8-3.589-8-8a8 8 0 0 0-16 0c0 2.134-.816 4.103-2.298 5.544a6.041 6.041 0 0 0-.158.158c-1.441 1.482-3.41 2.298-5.544 2.298h-8a8.004 8.004 0 0 0-7.555 5.361A32.364 32.364 0 0 1 424 264c0-11.541 5.986-21.904 16.06-27.747zM416 309.766l13.839-4.613 4.504 4.504a7.997 7.997 0 0 0 2.742 1.787l-4.675 14.026a8.002 8.002 0 0 0 1.933 8.187l2.343 2.343H416zM496 336h-20.686l2.343-2.343a8.002 8.002 0 0 0 1.933-8.187l-4.675-14.026a7.997 7.997 0 0 0 2.742-1.787l4.504-4.504L496 309.766zM120 248H88a8 8 0 0 0-8 8v32a8 8 0 0 0 8 8h32a8 8 0 0 0 8-8v-32a8 8 0 0 0-8-8zm-8 32H96v-16h16z" fill="#000000" opacity="1" data-original="#000000" class=""></path><path d="M301.456 394.15 272 366.68V328a8.002 8.002 0 0 0-2.343-5.657l-24-24A8.002 8.002 0 0 0 240 296h-16v-88a8 8 0 0 0-8-8h-33.376c-3.303-9.311-12.195-16-22.624-16 0-6.455-2.508-12.466-7.064-16.938C148.465 162.507 142.456 160 136 160c-13.233 0-24 10.767-24 24-10.429 0-19.321 6.689-22.624 16H56a8 8 0 0 0-8 8v88H32a8.002 8.002 0 0 0-5.657 2.343l-24 24A8.002 8.002 0 0 0 0 328v176a8 8 0 0 0 8 8h48a8 8 0 0 0 8-8v-48h144v48a8 8 0 0 0 8 8h48a8 8 0 0 0 8-8v-84.526l2.537 2.37A7.975 7.975 0 0 0 280 424c2.05 0 4.099-.784 5.658-2.343l16-16a8.002 8.002 0 0 0-.2-11.508zM256 331.312v20.437l-33.084-30.88a24.215 24.215 0 0 0-5.066-8.87h18.837zM219.313 392 192 364.687V320h8c.275 0 .55-.008.708 0l.129.017c3.27.414 6.037 2.833 6.93 5.978l.233 30.307a8 8 0 0 0 2.541 5.786L242.586 392zm-42.582-83.327-8.731-8.15V296h4.85l8.928 8.32a8.011 8.011 0 0 0-5.047 4.353zM104 208c0-4.411 3.589-8 8-8h8a8 8 0 0 0 8-8v-8c0-4.411 3.589-8 8-8 2.135 0 4.104.816 5.545 2.298.05.053.103.105.156.156 1.483 1.442 2.299 3.411 2.299 5.546v8a8 8 0 0 0 8 8h8c4.411 0 8 3.589 8 8v8h-64zM16 331.313 35.313 312H48v40a8 8 0 0 0 16 0c0-4.411 3.589-8 8-8h8v28.687L52.687 400H16zM96 392h16v16H96zM16 496v-80h32v80zm48-56v-28.686l16-16V416a8 8 0 0 0 8 8h32a8 8 0 0 0 8-8v-32a8 8 0 0 0-8-8H96v-16h24a8 8 0 0 0 8-8v-32a8 8 0 0 0-8-8H88a8 8 0 0 0-8 8v8h-8a23.89 23.89 0 0 0-8 1.371V216h24v8a8 8 0 0 0 8 8h80a8 8 0 0 0 8-8v-8h24v89.39c-.771-.276-1.56-.51-2.365-.709l-24.18-22.534A8 8 0 0 0 176 280h-16a8 8 0 0 0-8 8v16a8 8 0 0 0 2.541 5.849L176 329.877V368c0 2.122.843 4.156 2.343 5.657L208 403.314V440zm32-96v-16h16v16zm160 152h-32v-88h32zm23.812-91.126-11.47-10.719-.007-.007-44.361-41.409-.07-9.06 34.64 32.332 25.941 24.19z" fill="#000000" opacity="1" data-original="#000000" class=""></path><path d="M152 264h32a8 8 0 0 0 0-16h-32a8 8 0 0 0 0 16zM152 352h8a8 8 0 0 0 0-16h-8a8 8 0 0 0 0 16zM184 408h-32a8 8 0 0 0 0 16h32a8 8 0 0 0 0-16zM136 144c-39.701 0-72-32.299-72-72S96.299 0 136 0s72 32.299 72 72-32.299 72-72 72zm0-128c-30.879 0-56 25.121-56 56s25.121 56 56 56 56-25.121 56-56-25.121-56-56-56z" fill="#000000" opacity="1" data-original="#000000" class=""></path><path d="M152 80h-16a8 8 0 0 1-8-8V40a8 8 0 0 1 16 0v24h8a8 8 0 0 1 0 16zM365.657 226.343a8.001 8.001 0 0 0-11.314 11.314L364.686 248H256a8 8 0 0 0 0 16h108.686l-10.343 10.343a8.001 8.001 0 0 0 11.314 11.314l24-24a8.001 8.001 0 0 0 0-11.314zM256 224h40c22.056 0 40-17.944 40-40v-56c0-13.233 10.767-24 24-24h4.686l-10.343 10.343a8.001 8.001 0 0 0 11.314 11.314l24-24a8.001 8.001 0 0 0 0-11.314l-24-24a8.001 8.001 0 0 0-11.314 11.314L364.686 88H360c-22.056 0-40 17.944-40 40v56c0 13.233-10.767 24-24 24h-40a8 8 0 0 0 0 16zM365.657 386.343a8.001 8.001 0 0 0-11.314 11.314L364.686 408H360c-13.233 0-24-10.767-24-24v-56c0-22.056-17.944-40-40-40h-40a8 8 0 0 0 0 16h40c13.233 0 24 10.767 24 24v56c0 22.056 17.944 40 40 40h4.686l-10.343 10.343a8.001 8.001 0 0 0 11.314 11.314l24-24a8.001 8.001 0 0 0 0-11.314zM507.578 456.845 496 451.055V447.6c9.117-1.86 16-9.94 16-19.599s-6.882-17.739-16-19.597V392c0-13.233-10.767-24-24-24h-32c-13.233 0-24 10.767-24 24v16.401c-9.117 1.86-16 9.94-16 19.599s6.883 17.74 16 19.599v3.457l-11.578 5.789A8 8 0 0 0 400 464v40a8 8 0 0 0 8 8h96a8 8 0 0 0 8-8v-40a8 8 0 0 0-4.422-7.155zM432 392c0-4.411 3.589-8 8-8h32c4.411 0 8 3.589 8 8v13.754l-48-12zm-12 32h4a8 8 0 0 0 8-8v-5.754l54.06 13.515c.641.16 1.293.239 1.94.239h4c2.206 0 4 1.794 4 4s-1.794 4-4 4h-4a8 8 0 0 0-8 8v12.687L476.687 456h-41.374L432 452.687V440a8 8 0 0 0-8-8h-4c-2.206 0-4-1.794-4-4s1.794-4 4-4zm42.847 61.839L456 492.687l-6.847-6.848L453.767 472h4.466zM416 468.944l6.42-3.21 3.923 3.923A8.002 8.002 0 0 0 432 472h4.9l-4.49 13.47a8.002 8.002 0 0 0 1.933 8.187l2.343 2.343H416zM496 496h-20.686l2.343-2.343a8.002 8.002 0 0 0 1.933-8.187L475.1 472h4.9a8.002 8.002 0 0 0 5.657-2.343l3.923-3.923 6.42 3.21z" fill="#000000" opacity="1" data-original="#000000" class=""></path></g></svg>