<svg xmlns="http://www.w3.org/2000/svg" version="1.1" xmlns:xlink="http://www.w3.org/1999/xlink" width="512" height="512" x="0" y="0" viewBox="0 0 128 128" style="enable-background:new 0 0 512 512" xml:space="preserve"><g><path fill="#2d4356" d="M125.16 40.12a4 4 0 0 0 2.84-3.83V33a7.977 7.977 0 0 0-7.93-8H7.93A7.977 7.977 0 0 0 0 33v3.29a4 4 0 0 0 2.84 3.83 3.034 3.034 0 0 1 0 5.76A4 4 0 0 0 0 49.71v7.58a4 4 0 0 0 2.84 3.83 3.034 3.034 0 0 1 0 5.76A4 4 0 0 0 0 70.71v7.58a4 4 0 0 0 2.84 3.83 3.034 3.034 0 0 1 0 5.76A4 4 0 0 0 0 91.71V95a7.977 7.977 0 0 0 7.93 8h112.14a7.977 7.977 0 0 0 7.93-8v-3.29a4 4 0 0 0-2.84-3.83 3.034 3.034 0 0 1 0-5.76 4 4 0 0 0 2.84-3.83v-7.58a4 4 0 0 0-2.84-3.83 3.034 3.034 0 0 1 0-5.76 4 4 0 0 0 2.84-3.83v-7.58a4 4 0 0 0-2.84-3.83 3.034 3.034 0 0 1 0-5.76zM31 99H7.93A3.965 3.965 0 0 1 4 95v-3.29a7.036 7.036 0 0 0 0-13.42v-7.58a7.036 7.036 0 0 0 0-13.42v-7.58a7.036 7.036 0 0 0 0-13.42V33a3.965 3.965 0 0 1 3.93-4H31zm16 0h-4v-.5a2 2 0 0 0-4 0v.5h-4V29h4v.5a2 2 0 0 0 4 0V29h4zm77-49.29v7.58a7.036 7.036 0 0 0 0 13.42v7.58a7.036 7.036 0 0 0 0 13.42V95a3.965 3.965 0 0 1-3.93 4H51V29h69.07a3.965 3.965 0 0 1 3.93 4v3.29a7.036 7.036 0 0 0 0 13.42z" opacity="1" data-original="#2d4356"></path><path fill="#ffdb80" d="M31 29v70H7.93A3.965 3.965 0 0 1 4 95v-3.29a7.036 7.036 0 0 0 0-13.42v-7.58a7.036 7.036 0 0 0 0-13.42v-7.58a7.036 7.036 0 0 0 0-13.42V33a3.965 3.965 0 0 1 3.93-4z" opacity="1" data-original="#ffdb80"></path><path fill="#e1ebf4" d="M47 29v70h-4v-.5a2 2 0 0 0-4 0v.5h-4V29h4v.5a2 2 0 0 0 4 0V29z" opacity="1" data-original="#e1ebf4"></path><path fill="#ffdb80" d="M124 36.29V33a3.965 3.965 0 0 0-3.93-4H51v70h69.07a3.965 3.965 0 0 0 3.93-4v-3.29a7.036 7.036 0 0 1 0-13.42v-7.58a7.036 7.036 0 0 1 0-13.42v-7.58a7.036 7.036 0 0 1 0-13.42zM113 59a2.006 2.006 0 0 1-2 2H85a2.006 2.006 0 0 1-2-2V35a2.006 2.006 0 0 1 2-2h26a2.006 2.006 0 0 1 2 2z" opacity="1" data-original="#ffdb80"></path><g fill="#2d4356"><path d="M41 42.077a2 2 0 0 0-2 2v.972a2 2 0 1 0 4 0v-.972a2 2 0 0 0-2-2zM41 57.627a2 2 0 0 0-2 2v.972a2 2 0 0 0 4 0v-.972a2 2 0 0 0-2-2zM41 34.303a2 2 0 0 0-2 2v.971a2 2 0 0 0 4 0v-.971a2 2 0 0 0-2-2zM41 49.852a2 2 0 0 0-2 2v.972a2 2 0 0 0 4 0v-.972a2 2 0 0 0-2-2zM41 65.401a2 2 0 0 0-2 2v.972a2 2 0 0 0 4 0v-.972a2 2 0 0 0-2-2zM41 73.176a2 2 0 0 0-2 2v.971a2 2 0 0 0 4 0v-.971a2 2 0 0 0-2-2zM41 88.726a2 2 0 0 0-2 2v.971a2 2 0 0 0 4 0v-.971a2 2 0 0 0-2-2zM41 80.95a2 2 0 0 0-2 2v.973a2 2 0 0 0 4 0v-.973a2 2 0 0 0-2-2zM16 38h8a2 2 0 0 0 0-4h-8a2 2 0 0 0 0 4zM16 46h4a2 2 0 0 0 0-4h-4a2 2 0 0 0 0 4zM16 54h8a2 2 0 0 0 0-4h-8a2 2 0 0 0 0 4zM16 62h4a2 2 0 0 0 0-4h-4a2 2 0 0 0 0 4zM16 70h8a2 2 0 0 0 0-4h-8a2 2 0 0 0 0 4zM16 78h4a2 2 0 0 0 0-4h-4a2 2 0 0 0 0 4zM16 86h8a2 2 0 0 0 0-4h-8a2 2 0 0 0 0 4zM16 94h4a2 2 0 0 0 0-4h-4a2 2 0 0 0 0 4zM111 33H85a2.006 2.006 0 0 0-2 2v24a2.006 2.006 0 0 0 2 2h26a2.006 2.006 0 0 0 2-2V35a2.006 2.006 0 0 0-2-2zm-2 24H87V37h22z" fill="#2d4356" opacity="1" data-original="#2d4356"></path></g><path fill="#e1ebf4" d="M87 37h22v20H87z" opacity="1" data-original="#e1ebf4"></path><path fill="#2d4356" d="M111.5 67H59a2 2 0 0 0 0 4h52.5a2 2 0 0 0 0-4zM111.5 75H81a2 2 0 0 0 0 4h30.5a2 2 0 0 0 0-4z" opacity="1" data-original="#2d4356"></path><path fill="#f9edd250" d="M31 29v2H7.93A3.965 3.965 0 0 0 4 35v-2a3.965 3.965 0 0 1 3.93-4z" opacity="1" data-original="#f9edd250"></path><path fill="#fff" d="M47 29v2h-4v.5a2 2 0 0 1-4 0V31h-4v-2h4v.5a2 2 0 0 0 4 0V29z" opacity=".5"></path><path fill="#f9edd2" d="M124 33v2a3.965 3.965 0 0 0-3.93-4H51v-2h69.07a3.965 3.965 0 0 1 3.93 4z" opacity=".5"></path><path fill="#ad9359" d="M124 93v2a3.965 3.965 0 0 1-3.93 4H51v-2h69.07a3.965 3.965 0 0 0 3.93-4z" opacity=".45"></path><path fill="#9fa5aa" d="M47 97v2h-4v-.5a2 2 0 0 0-4 0v.5h-4v-2h4v-.5a2 2 0 0 1 4 0v.5z" opacity=".5"></path><path fill="#ad9359" d="M31 97v2H7.93A3.965 3.965 0 0 1 4 95v-2a3.965 3.965 0 0 0 3.93 4z" opacity=".45"></path><path fill="#fff" d="M87 37h22v2H87z" opacity=".5"></path><path fill="#9fa5aa" d="M87 55h22v2H87z" opacity=".5"></path></g></svg>